<?xml version="1.0" encoding="UTF-8"?>
<!DOCTYPE svg PUBLIC "-//W3C//DTD SVG 1.1//EN" "http://www.w3.org/Graphics/SVG/1.1/DTD/svg11.dtd">
<svg version="1.2" width="254mm" height="254mm" viewBox="0 0 25400 25400" preserveAspectRatio="xMidYMid" fill-rule="evenodd" stroke-width="28.222" stroke-linejoin="round" xmlns="http://www.w3.org/2000/svg" xmlns:ooo="http://xml.openoffice.org/svg/export" xmlns:xlink="http://www.w3.org/1999/xlink" xmlns:presentation="http://sun.com/xmlns/staroffice/presentation" xmlns:smil="http://www.w3.org/2001/SMIL20/" xmlns:anim="urn:oasis:names:tc:opendocument:xmlns:animation:1.0" xml:space="preserve">
 <defs class="ClipPathGroup">
  <clipPath id="presentation_clip_path" clipPathUnits="userSpaceOnUse">
   <rect x="0" y="0" width="25400" height="25400"/>
  </clipPath>
  <clipPath id="presentation_clip_path_shrink" clipPathUnits="userSpaceOnUse">
   <rect x="25" y="25" width="25350" height="25350"/>
  </clipPath>
 </defs>
 <defs class="TextShapeIndex">
  <g ooo:slide="id1" ooo:id-list="id3 id4 id5 id6 id7 id8 id9 id10 id11 id12 id13 id14 id15 id16 id17 id18 id19 id20 id21 id22 id23 id24"/>
 </defs>
 <defs class="EmbeddedBulletChars">
  <g id="bullet-char-template-57356" transform="scale(0.00048828125,-0.00048828125)">
   <path d="M 580,1141 L 1163,571 580,0 -4,571 580,1141 Z"/>
  </g>
  <g id="bullet-char-template-57354" transform="scale(0.00048828125,-0.00048828125)">
   <path d="M 8,1128 L 1137,1128 1137,0 8,0 8,1128 Z"/>
  </g>
  <g id="bullet-char-template-10146" transform="scale(0.00048828125,-0.00048828125)">
   <path d="M 174,0 L 602,739 174,1481 1456,739 174,0 Z M 1358,739 L 309,1346 659,739 1358,739 Z"/>
  </g>
  <g id="bullet-char-template-10132" transform="scale(0.00048828125,-0.00048828125)">
   <path d="M 2015,739 L 1276,0 717,0 1260,543 174,543 174,936 1260,936 717,1481 1274,1481 2015,739 Z"/>
  </g>
  <g id="bullet-char-template-10007" transform="scale(0.00048828125,-0.00048828125)">
   <path d="M 0,-2 C -7,14 -16,27 -25,37 L 356,567 C 262,823 215,952 215,954 215,979 228,992 255,992 264,992 276,990 289,987 310,991 331,999 354,1012 L 381,999 492,748 772,1049 836,1024 860,1049 C 881,1039 901,1025 922,1006 886,937 835,863 770,784 769,783 710,716 594,584 L 774,223 C 774,196 753,168 711,139 L 727,119 C 717,90 699,76 672,76 641,76 570,178 457,381 L 164,-76 C 142,-110 111,-127 72,-127 30,-127 9,-110 8,-76 1,-67 -2,-52 -2,-32 -2,-23 -1,-13 0,-2 Z"/>
  </g>
  <g id="bullet-char-template-10004" transform="scale(0.00048828125,-0.00048828125)">
   <path d="M 285,-33 C 182,-33 111,30 74,156 52,228 41,333 41,471 41,549 55,616 82,672 116,743 169,778 240,778 293,778 328,747 346,684 L 369,508 C 377,444 397,411 428,410 L 1163,1116 C 1174,1127 1196,1133 1229,1133 1271,1133 1292,1118 1292,1087 L 1292,965 C 1292,929 1282,901 1262,881 L 442,47 C 390,-6 338,-33 285,-33 Z"/>
  </g>
  <g id="bullet-char-template-9679" transform="scale(0.00048828125,-0.00048828125)">
   <path d="M 813,0 C 632,0 489,54 383,161 276,268 223,411 223,592 223,773 276,916 383,1023 489,1130 632,1184 813,1184 992,1184 1136,1130 1245,1023 1353,916 1407,772 1407,592 1407,412 1353,268 1245,161 1136,54 992,0 813,0 Z"/>
  </g>
  <g id="bullet-char-template-8226" transform="scale(0.00048828125,-0.00048828125)">
   <path d="M 346,457 C 273,457 209,483 155,535 101,586 74,649 74,723 74,796 101,859 155,911 209,963 273,989 346,989 419,989 480,963 531,910 582,859 608,796 608,723 608,648 583,586 532,535 482,483 420,457 346,457 Z"/>
  </g>
  <g id="bullet-char-template-8211" transform="scale(0.00048828125,-0.00048828125)">
   <path d="M -4,459 L 1135,459 1135,606 -4,606 -4,459 Z"/>
  </g>
  <g id="bullet-char-template-61548" transform="scale(0.00048828125,-0.00048828125)">
   <path d="M 173,740 C 173,903 231,1043 346,1159 462,1274 601,1332 765,1332 928,1332 1067,1274 1183,1159 1299,1043 1357,903 1357,740 1357,577 1299,437 1183,322 1067,206 928,148 765,148 601,148 462,206 346,322 231,437 173,577 173,740 Z"/>
  </g>
 </defs>
 <g>
  <g id="id2" class="Master_Slide">
   <g id="bg-id2" class="Background"/>
   <g id="bo-id2" class="BackgroundObjects"/>
  </g>
 </g>
 <g class="SlideGroup">
  <g>
   <g id="container-id1">
    <g id="id1" class="Slide" clip-path="url(#presentation_clip_path)">
     <g class="Page">
      <g class="com.sun.star.drawing.ClosedBezierShape">
       <g id="id3">
        <rect class="BoundingBox" stroke="none" fill="none" x="8098" y="4370" width="2326" height="3048"/>
        <path fill="rgb(68,30,0)" stroke="none" d="M 9976,4387 C 9718,4338 9458,4422 9202,4387 8985,4358 8766,4436 8599,4558 8414,4694 8354,4934 8238,5125 8132,5300 8162,5492 8118,5674 8070,5869 8119,6058 8169,6241 8231,6469 8379,6673 8599,6807 8818,6940 8998,7008 9252,7047 9252,7047 9783,7427 9996,7417 10156,7410 10368,7206 10372,6961 L 10407,6772 10423,6600 9976,4387 Z"/>
       </g>
      </g>
      <g class="com.sun.star.drawing.ClosedBezierShape">
       <g id="id4">
        <rect class="BoundingBox" stroke="none" fill="none" x="6650" y="6423" width="15258" height="14850"/>
        <path fill="rgb(111,67,37)" stroke="none" d="M 7541,6565 C 7946,6306 8436,6443 8819,6642 9309,6896 9578,7441 10175,7530 10723,7613 11052,8119 11336,8534 11589,8903 11505,9419 11724,9808 11951,10212 11858,10629 11879,11043 11903,11506 11594,11892 11452,12318 11300,12774 11046,13297 10524,13437 10057,13563 9768,14009 9671,14518 9585,14970 9760,15342 9904,15715 10098,16214 10534,16532 10872,16911 11246,17334 11689,17694 12112,18071 12604,18510 13236,18765 13738,19190 14122,19515 14552,19483 14977,19498 15428,19513 15901,19398 16333,19537 16734,19666 17141,19715 17534,19846 18020,20008 18504,20005 19006,20156 19426,20282 22115,20709 21893,21131 21660,21576 19158,20819 18734,20850 18216,20890 17701,20884 17185,20889 16747,20892 16305,20889 15868,20889 15416,20889 14964,20889 14512,20889 14112,20889 13709,20855 13312,20889 12882,20926 11527,21135 11112,21131 10537,21127 11125,20208 10910,19769 10652,19240 10150,18959 9787,18533 9424,18107 9217,17572 8819,17182 8417,16790 8005,16392 7734,15907 7518,15520 7465,15060 7348,14634 7222,14175 7405,13729 7464,13283 7520,12854 7592,12339 8083,12124 8586,11905 8671,11349 8819,10889 8949,10485 9047,9997 8780,9615 8485,9193 8306,8719 8006,8302 7669,7834 6650,7028 6650,7028 6650,7028 7115,6837 7541,6565 Z"/>
       </g>
      </g>
      <g class="com.sun.star.drawing.ClosedBezierShape">
       <g id="id5">
        <rect class="BoundingBox" stroke="none" fill="none" x="17185" y="13781" width="6847" height="7383"/>
        <path fill="rgb(111,67,37)" stroke="none" d="M 17975,13781 C 17993,14096 17864,14436 17975,14753 18043,14946 18123,15136 18207,15324 18281,15490 18327,15671 18409,15834 18498,16012 18593,16183 18687,16360 18815,16599 18938,16843 19043,17101 19114,17274 19175,17278 19292,17426 19447,17622 19736,17902 19973,17996 20144,18064 20319,18128 20500,18135 20682,18142 20827,18216 20980,18289 21160,18375 21330,18319 21507,18383 21681,18446 21867,18475 22049,18507 22232,18538 22401,18610 22576,18661 22822,18731 22973,18957 23057,19186 23110,19334 22970,19516 23057,19649 23158,19806 23432,19704 23614,19757 23798,19810 23961,19973 24017,20158 24086,20385 23885,20882 23552,20838 23383,20814 23229,20900 23057,20884 22890,20869 22725,20860 22560,20823 22390,20784 22062,21167 21894,21132 21720,21096 21305,21216 21150,21132 20973,21036 20183,20906 20035,20761 19889,20617 20116,19463 20035,19278 19952,19089 19978,19056 19866,18892 19741,18710 19613,18527 19446,18383 19286,18244 19056,17951 18919,17796 18781,17638 18803,17561 18703,17379 18616,17221 18521,17066 18424,16915 18329,16768 18282,16590 18177,16452 18055,16293 17979,16115 17851,15958 17738,15818 17664,15652 17603,15480 17546,15317 17463,15166 17417,15001 17372,14842 17285,14697 17247,14537 L 17200,14321 17185,14181 17975,13781 Z"/>
       </g>
      </g>
      <g class="com.sun.star.drawing.ClosedBezierShape">
       <g id="id6">
        <rect class="BoundingBox" stroke="none" fill="none" x="13343" y="3340" width="8369" height="7339"/>
        <path fill="rgb(167,116,40)" stroke="none" d="M 13343,3711 C 13543,3681 14614,3348 14815,3341 14974,3337 15132,3344 15295,3372 15514,3409 15724,3456 15946,3495 16131,3528 16306,3567 16488,3588 16668,3607 16843,3592 17031,3634 17218,3676 17399,3717 17573,3788 17778,3872 17993,3901 18207,3959 18435,4021 18641,4169 18874,4190 19081,4209 19237,4280 19416,4345 19576,4404 19747,4433 19896,4515 20061,4604 20175,4766 20284,4948 20384,5115 20592,5175 20811,5225 21004,5270 21203,5331 21306,5550 21385,5719 21475,5883 21539,6059 21593,6207 21559,6374 21570,6538 21581,6724 21448,6849 21507,7033 21563,7199 21731,7319 21709,7511 21690,7671 21657,7829 21632,7990 21604,8161 21499,8309 21461,8484 21422,8655 21303,8794 21214,8947 21110,9124 20976,9312 20764,9379 20639,9418 20259,9503 20438,9673 20585,9812 20695,9981 20594,10137 20491,10297 20331,10452 20129,10476 L 19973,10569 19819,10646 19757,10677 13343,3711 Z"/>
       </g>
      </g>
      <g class="com.sun.star.drawing.CustomShape">
       <g id="id7">
        <rect class="BoundingBox" stroke="none" fill="none" x="15175" y="4260" width="1541" height="1126"/>
        <path fill="rgb(102,67,35)" stroke="none" d="M 16715,4823 C 16715,4921 16679,5018 16612,5104 16544,5189 16447,5260 16330,5310 16213,5359 16080,5385 15945,5385 15810,5385 15677,5359 15560,5310 15443,5260 15346,5189 15278,5104 15211,5018 15175,4921 15175,4823 15175,4724 15211,4627 15278,4541 15346,4456 15443,4385 15560,4335 15677,4286 15810,4260 15945,4260 16080,4260 16213,4286 16330,4335 16447,4385 16544,4456 16612,4541 16679,4627 16715,4724 16715,4823 L 16715,4823 Z"/>
       </g>
      </g>
      <g class="com.sun.star.drawing.CustomShape">
       <g id="id8">
        <rect class="BoundingBox" stroke="none" fill="none" x="15447" y="4311" width="1033" height="1062"/>
        <path fill="rgb(39,25,11)" stroke="none" d="M 16479,4842 C 16479,4935 16455,5026 16410,5107 16365,5187 16299,5254 16221,5301 16143,5347 16054,5372 15963,5372 15872,5372 15783,5347 15705,5301 15627,5254 15561,5187 15516,5107 15471,5026 15447,4935 15447,4842 15447,4748 15471,4657 15516,4576 15561,4496 15627,4429 15705,4382 15783,4336 15872,4311 15963,4311 16054,4311 16143,4336 16221,4382 16299,4429 16365,4496 16410,4576 16455,4657 16479,4748 16479,4841 L 16479,4842 Z"/>
       </g>
      </g>
      <g class="com.sun.star.drawing.ClosedBezierShape">
       <g id="id9">
        <rect class="BoundingBox" stroke="none" fill="none" x="-42" y="6610" width="11948" height="14525"/>
        <path fill="rgb(102,67,35)" stroke="none" d="M -42,8531 C 265,8714 1114,8898 1445,8901 1812,8903 2188,8950 2560,8901 2945,8850 3287,8585 3676,8531 4067,8476 4406,8253 4791,8159 5217,8057 5460,7472 5907,7418 6242,7378 5907,7418 6650,7048 7765,6307 7421,6747 7765,6677 8105,6608 8436,7298 8775,7385 9188,7493 9717,7591 9901,8059 10022,8368 10179,8659 10210,9014 10239,9334 10399,9640 10380,9969 10363,10266 10434,10572 10380,10866 10323,11180 10217,11479 10154,11793 10082,12156 9864,12468 9591,12692 9312,12922 8983,13059 8689,13282 8386,13512 8240,13834 8154,14181 8070,14523 8161,14860 8296,15164 8459,15530 8714,15843 8971,16145 9260,16484 9599,16775 9929,17072 10288,17396 10498,17839 10858,18167 11161,18444 11332,18830 11479,19206 11604,19530 11740,19855 11844,20189 11927,20455 12008,21128 11483,21132 11118,21136 -42,21132 -42,21132 L -42,8531 Z"/>
       </g>
      </g>
      <g class="com.sun.star.drawing.ClosedBezierShape">
       <g id="id10">
        <rect class="BoundingBox" stroke="none" fill="none" x="8714" y="5055" width="1245" height="1136"/>
        <path fill="rgb(36,16,0)" stroke="none" d="M 8943,5061 C 8979,5062 9019,5064 9058,5068 9093,5072 9125,5084 9162,5087 9203,5090 9237,5121 9276,5139 9319,5159 9351,5200 9394,5223 9436,5246 9470,5285 9504,5321 9537,5355 9581,5381 9628,5392 9672,5402 9703,5439 9732,5471 9764,5504 9805,5532 9837,5565 9864,5595 9888,5633 9909,5669 9928,5702 9943,5738 9951,5776 9959,5813 9957,5851 9957,5890 9958,5931 9961,5972 9944,6013 9930,6050 9928,6100 9889,6121 9852,6142 9807,6154 9765,6161 9724,6167 9684,6179 9645,6186 9604,6193 9561,6187 9520,6186 9478,6186 9436,6190 9396,6176 9353,6160 9304,6156 9259,6153 9210,6150 9163,6133 9116,6128 9070,6123 9022,6105 8976,6111 8930,6118 8875,6120 8848,6088 8815,6050 8894,6019 8921,5991 8952,5959 8992,5925 8992,5871 8992,5834 8978,5802 8963,5773 8942,5732 8939,5679 8908,5646 8868,5604 8833,5561 8800,5516 8773,5479 8718,5458 8715,5412 8711,5366 8722,5319 8722,5272 8722,5235 8735,5200 8744,5165 8755,5123 8778,5078 8822,5061 L 8855,5055 C 8855,5055 8908,5060 8943,5061 Z"/>
       </g>
      </g>
      <g class="com.sun.star.drawing.ClosedBezierShape">
       <g id="id11">
        <rect class="BoundingBox" stroke="none" fill="none" x="8486" y="3425" width="11895" height="17239"/>
        <path fill="rgb(147,87,46)" stroke="none" d="M 9477,7196 C 9634,7211 9808,7148 9885,7010 9958,6881 10011,6738 10034,6591 10055,6456 10089,6322 10084,6182 10080,6042 10074,5908 10059,5763 10045,5624 10013,5504 10034,5368 10056,5226 9965,5103 9960,4960 9956,4831 9913,4707 9898,4577 9878,4414 9927,4257 10022,4144 10123,4023 10283,3956 10431,3897 10560,3844 10705,3873 10840,3823 10984,3769 11145,3771 11299,3774 11456,3779 11597,3711 11757,3737 11898,3760 12026,3701 12166,3675 12309,3649 12445,3611 12587,3613 12724,3615 12842,3572 12972,3551 13135,3524 13301,3503 13468,3502 13631,3502 13807,3539 13963,3478 14091,3427 14219,3454 14347,3440 14527,3419 14710,3430 14893,3427 15032,3426 15175,3438 15314,3427 15470,3415 15622,3495 15772,3452 15920,3409 16047,3557 15996,3699 15942,3848 15855,4011 15698,4045 15548,4078 15407,4138 15264,4193 15105,4255 15025,4403 14955,4540 14894,4660 14834,4787 14818,4923 14798,5082 14935,5181 14979,5319 15043,5518 15239,5467 15388,5516 15513,5558 15653,5551 15785,5578 15928,5606 16061,5598 16207,5627 16347,5655 16492,5635 16640,5651 16808,5670 16970,5710 17136,5738 17283,5762 17422,5824 17570,5874 17735,5931 17855,6035 17954,6158 18060,6290 18148,6433 18238,6578 18331,6727 18400,6887 18499,7036 18591,7171 18640,7335 18684,7492 18727,7645 18756,7804 18797,7961 18834,8105 18923,8235 18957,8382 18995,8540 19057,8695 19106,8851 19148,8983 19170,9122 19193,9260 19224,9456 19258,9652 19279,9853 19300,10055 20009,10179 20036,10383 20056,10536 20407,10383 20036,10754 19663,11124 19448,11220 19454,11371 19459,11521 18581,12365 18413,12422 18252,12477 18337,12920 18176,12978 18028,13030 17579,14774 17433,14830 17293,14884 19065,17765 18920,17795 21523,20390 20407,21132 17433,20390 17293,20399 13853,20013 13715,20019 13548,20027 12766,19955 12600,20019 12417,20090 11670,17739 11484,17795 11305,17849 11285,17415 11113,17425 10949,17435 10533,16684 10369,16684 10168,16684 10198,16313 9997,16313 9853,16313 9768,15943 9625,15943 9456,15943 9420,15572 9253,15572 9050,15572 9083,15202 8882,15202 8701,15202 8689,14472 8509,14460 8358,14451 9028,13753 8882,13719 8735,13685 10089,12720 10109,12608 10136,12456 10269,12354 10382,12249 10501,12138 10526,11957 10604,11816 10692,11659 10743,11483 10778,11309 10812,11141 10835,10986 10864,10816 10895,10639 10883,10478 10915,10309 10945,10147 10928,9980 10926,9815 10924,9630 10937,9444 10902,9260 10865,9067 10855,8876 10828,8678 10802,8489 10715,8346 10604,8222 10466,8067 10331,7916 10196,7764 L 10072,7640 9998,7603 C 9998,7603 9329,7181 9477,7196 Z"/>
       </g>
      </g>
      <g class="com.sun.star.drawing.ClosedBezierShape">
       <g id="id12">
        <rect class="BoundingBox" stroke="none" fill="none" x="15005" y="12552" width="3277" height="4493"/>
        <path fill="rgb(168,123,92)" stroke="none" d="M 18268,12557 C 18123,12532 17988,12604 17848,12617 17730,12628 17629,12700 17519,12736 17392,12778 17268,12832 17138,12866 17025,12895 16913,12948 16799,12956 16682,12963 16567,12953 16449,12925 16321,12895 16191,12876 16069,12836 15964,12802 15863,12751 15760,12716 15644,12677 15536,12616 15410,12607 15290,12598 15146,12540 15050,12617 14946,12701 15050,12832 15080,12936 15116,13063 15230,13153 15289,13274 15348,13393 15473,13474 15520,13603 15564,13725 15653,13818 15719,13931 15786,14046 15859,14158 15930,14271 15990,14368 16037,14476 16089,14579 16146,14694 16227,14799 16299,14909 16366,15011 16403,15131 16479,15227 16562,15332 16601,15461 16689,15566 16779,15674 16757,15830 16819,15955 16877,16073 16942,16194 17019,16304 17110,16434 17246,16527 17359,16642 17460,16746 17574,16844 17698,16921 17798,16983 17951,17101 18059,17011 18142,16941 18304,16935 18278,16781 18260,16677 18303,16548 18189,16473 18053,16384 17995,16223 17909,16093 17843,15994 17814,15875 17748,15775 17677,15665 17606,15553 17548,15436 17497,15331 17443,15226 17409,15118 17370,14994 17598,14281 17658,14142 17712,14018 17752,13903 17759,13773 L 17799,13643 18268,12557 Z"/>
       </g>
      </g>
      <g class="com.sun.star.drawing.ClosedBezierShape">
       <g id="id13">
        <rect class="BoundingBox" stroke="none" fill="none" x="10143" y="12508" width="13079" height="8402"/>
        <path fill="rgb(86,51,27)" stroke="none" d="M 14068,12964 C 13785,12802 13495,12631 13161,12607 12891,12587 12628,12486 12351,12512 12060,12539 11749,12540 11494,12702 11230,12869 10942,13005 10683,13178 10442,13339 10141,13566 10159,13891 10175,14194 10100,14484 10182,14793 10259,15086 10348,15372 10468,15649 10601,15957 10923,16131 11135,16386 11346,16638 11626,16825 11922,16955 12180,17068 12446,17152 12733,17217 13037,17284 13319,17261 13614,17311 13938,17367 14259,17421 14591,17454 14954,17490 15304,17603 15664,17668 15989,17728 16259,17884 16570,17977 16892,18072 17208,18210 17499,18381 17779,18545 18032,18754 18309,18927 18619,19121 18811,19418 19096,19640 19374,19856 19609,20123 19858,20377 20065,20587 20329,20774 20622,20827 20862,20872 21260,21069 21384,20614 21551,20004 21878,20732 22218,20685 22501,20646 22841,20811 23076,20638 23520,20312 22816,20283 22623,20234 22271,20146 21912,20017 21551,20044 21155,20073 20762,19735 20406,19649 20121,19581 19916,19423 19663,19278 19372,19112 19170,18765 18919,18537 18658,18300 18492,17949 18176,17796 17826,17626 17686,17303 17432,17054 17164,16791 16479,16202 16317,15943 16130,15644 15716,15396 15544,15101 15363,14792 15154,14497 14996,14176 L 14901,13914 C 14901,13914 14392,13150 14068,12964 Z"/>
       </g>
      </g>
      <g class="com.sun.star.drawing.ClosedBezierShape">
       <g id="id14">
        <rect class="BoundingBox" stroke="none" fill="none" x="16728" y="3970" width="3236" height="1599"/>
        <path fill="rgb(75,34,4)" stroke="none" d="M 17086,3976 C 17202,3964 17322,3972 17441,3985 17570,3999 17682,4073 17812,4073 17919,4072 18007,4136 18113,4135 18215,4133 18322,4117 18424,4135 18524,4152 18623,4184 18725,4197 18851,4213 18960,4281 19078,4320 19185,4356 19284,4418 19389,4462 19514,4514 19638,4584 19716,4692 19794,4798 19900,4877 19946,5009 19986,5125 19944,5238 19911,5344 19874,5462 19756,5513 19654,5538 19556,5562 19453,5572 19353,5565 19259,5558 19171,5520 19078,5503 18959,5481 18846,5428 18742,5371 18637,5313 18544,5234 18432,5193 18325,5155 18223,5092 18113,5071 18015,5052 17893,5026 17812,5088 17705,5171 17592,5259 17459,5255 17360,5252 17260,5270 17166,5238 17034,5192 17049,5035 16936,4965 16850,4911 16804,4792 16839,4682 16873,4576 16833,4443 16750,4373 16647,4286 16927,3993 17086,3976 Z"/>
       </g>
      </g>
      <g class="com.sun.star.drawing.CustomShape">
       <g id="id15">
        <rect class="BoundingBox" stroke="none" fill="none" x="20385" y="5636" width="780" height="651"/>
        <path fill="rgb(39,25,11)" stroke="none" d="M 21164,5961 C 21164,6018 21146,6074 21112,6124 21078,6173 21029,6214 20969,6242 20910,6271 20843,6286 20775,6286 20707,6286 20640,6271 20580,6242 20521,6214 20472,6173 20438,6124 20404,6074 20386,6018 20386,5961 20386,5904 20404,5848 20438,5799 20472,5749 20521,5708 20580,5680 20640,5651 20707,5636 20775,5636 20843,5636 20910,5651 20969,5680 21029,5708 21078,5749 21112,5799 21146,5848 21164,5904 21164,5961 L 21164,5961 Z"/>
       </g>
      </g>
      <g class="com.sun.star.drawing.ClosedBezierShape">
       <g id="id16">
        <rect class="BoundingBox" stroke="none" fill="none" x="19261" y="9235" width="1527" height="657"/>
        <path fill="rgb(75,34,4)" stroke="none" d="M 20786,9241 C 20721,9277 20656,9309 20590,9341 20523,9375 20443,9378 20369,9392 20272,9410 20174,9402 20078,9404 19996,9406 19912,9416 19831,9404 19747,9392 19717,9292 19642,9260 19570,9228 19493,9233 19420,9241 19357,9248 19273,9271 19262,9354 19249,9453 19345,9499 19407,9549 19467,9597 19542,9623 19610,9664 19697,9715 19787,9773 19889,9790 19973,9804 20051,9834 20142,9840 20242,9847 20341,9888 20445,9890 20520,9892 20584,9853 20646,9821 20787,9751 20406,9641 20406,9641 L 20786,9241 Z"/>
       </g>
      </g>
      <g class="com.sun.star.drawing.ClosedBezierShape">
       <g id="id17">
        <rect class="BoundingBox" stroke="none" fill="none" x="21514" y="20424" width="735" height="844"/>
        <path fill="rgb(255,166,166)" stroke="none" d="M 21705,20465 C 21737,20490 21754,20529 21782,20558 21810,20588 21837,20621 21876,20642 21910,20661 21935,20701 21964,20730 21990,20756 22016,20786 22035,20818 22054,20849 22073,20882 22097,20911 22124,20943 22161,20974 22178,21016 22189,21044 22204,21076 22206,21108 22208,21139 22204,21175 22193,21204 22180,21240 22137,21221 22110,21221 22076,21221 22049,21196 22022,21183 21986,21165 21965,21131 21938,21104 21911,21076 21881,21065 21855,21044 21828,21022 21797,21002 21769,20982 21740,20961 21713,20937 21687,20913 21657,20885 21631,20851 21612,20815 21599,20788 21588,20757 21581,20730 21573,20700 21563,20668 21561,20638 21559,20611 21556,20582 21555,20555 21554,20526 21566,20501 21574,20476 L 21579,20467 21705,20465 Z"/>
        <path fill="none" stroke="rgb(206,172,149)" stroke-width="81" stroke-linejoin="round" d="M 21705,20465 C 21737,20490 21754,20529 21782,20558 21810,20588 21837,20621 21876,20642 21910,20661 21935,20701 21964,20730 21990,20756 22016,20786 22035,20818 22054,20849 22073,20882 22097,20911 22124,20943 22161,20974 22178,21016 22189,21044 22204,21076 22206,21108 22208,21139 22204,21175 22193,21204 22180,21240 22137,21221 22110,21221 22076,21221 22049,21196 22022,21183 21986,21165 21965,21131 21938,21104 21911,21076 21881,21065 21855,21044 21828,21022 21797,21002 21769,20982 21740,20961 21713,20937 21687,20913 21657,20885 21631,20851 21612,20815 21599,20788 21588,20757 21581,20730 21573,20700 21563,20668 21561,20638 21559,20611 21556,20582 21555,20555 21554,20526 21566,20501 21574,20476 L 21579,20467 21705,20465 Z"/>
       </g>
      </g>
      <g class="com.sun.star.drawing.ClosedBezierShape">
       <g id="id18">
        <rect class="BoundingBox" stroke="none" fill="none" x="23410" y="20110" width="1059" height="712"/>
        <path fill="rgb(255,166,166)" stroke="none" d="M 23451,20297 C 23453,20268 23447,20237 23460,20211 23472,20185 23489,20149 23528,20151 23558,20153 23590,20151 23621,20155 23655,20158 23687,20178 23720,20188 23751,20199 23785,20214 23818,20227 23849,20239 23884,20254 23916,20267 23949,20280 23981,20302 24015,20317 24043,20330 24072,20344 24099,20362 24128,20382 24159,20407 24189,20429 24223,20454 24244,20489 24279,20514 24311,20537 24343,20560 24370,20592 24391,20618 24413,20646 24421,20679 24429,20709 24437,20759 24393,20772 24361,20781 24325,20780 24293,20780 24259,20780 24225,20773 24193,20769 24160,20764 24132,20748 24103,20738 24070,20727 24036,20714 24004,20702 23966,20687 23930,20669 23891,20660 23855,20652 23821,20640 23790,20629 23755,20616 23722,20592 23694,20570 23666,20549 23636,20529 23610,20508 23578,20483 23550,20457 23525,20427 23498,20394 23451,20297 23451,20297 Z"/>
        <path fill="none" stroke="rgb(206,172,149)" stroke-width="81" stroke-linejoin="round" d="M 23451,20297 C 23453,20268 23447,20237 23460,20211 23472,20185 23489,20149 23528,20151 23558,20153 23590,20151 23621,20155 23655,20158 23687,20178 23720,20188 23751,20199 23785,20214 23818,20227 23849,20239 23884,20254 23916,20267 23949,20280 23981,20302 24015,20317 24043,20330 24072,20344 24099,20362 24128,20382 24159,20407 24189,20429 24223,20454 24244,20489 24279,20514 24311,20537 24343,20560 24370,20592 24391,20618 24413,20646 24421,20679 24429,20709 24437,20759 24393,20772 24361,20781 24325,20780 24293,20780 24259,20780 24225,20773 24193,20769 24160,20764 24132,20748 24103,20738 24070,20727 24036,20714 24004,20702 23966,20687 23930,20669 23891,20660 23855,20652 23821,20640 23790,20629 23755,20616 23722,20592 23694,20570 23666,20549 23636,20529 23610,20508 23578,20483 23550,20457 23525,20427 23498,20394 23451,20297 23451,20297 Z"/>
       </g>
      </g>
      <g class="com.sun.star.drawing.ClosedBezierShape">
       <g id="id19">
        <rect class="BoundingBox" stroke="none" fill="none" x="23755" y="19813" width="934" height="686"/>
        <path fill="rgb(255,166,166)" stroke="none" d="M 23796,19854 C 23830,19868 23866,19879 23900,19896 23930,19911 23962,19922 23995,19936 24028,19949 24065,19958 24099,19975 24131,19992 24166,20002 24199,20017 24227,20031 24257,20050 24289,20059 24318,20068 24344,20091 24373,20104 24404,20117 24430,20139 24460,20155 24491,20172 24519,20200 24545,20225 24572,20251 24604,20275 24630,20307 24651,20334 24642,20362 24646,20391 24649,20414 24645,20466 24602,20455 24572,20448 24540,20458 24512,20455 24472,20451 24430,20442 24396,20425 24362,20408 24325,20394 24291,20379 24260,20366 24225,20359 24193,20349 24158,20337 24123,20322 24095,20301 24067,20280 24034,20266 24007,20247 23976,20226 23940,20209 23920,20177 L 23897,20149 23872,20118 23796,19854 Z"/>
        <path fill="none" stroke="rgb(206,172,149)" stroke-width="81" stroke-linejoin="round" d="M 23796,19854 C 23830,19868 23866,19879 23900,19896 23930,19911 23962,19922 23995,19936 24028,19949 24065,19958 24099,19975 24131,19992 24166,20002 24199,20017 24227,20031 24257,20050 24289,20059 24318,20068 24344,20091 24373,20104 24404,20117 24430,20139 24460,20155 24491,20172 24519,20200 24545,20225 24572,20251 24604,20275 24630,20307 24651,20334 24642,20362 24646,20391 24649,20414 24645,20466 24602,20455 24572,20448 24540,20458 24512,20455 24472,20451 24430,20442 24396,20425 24362,20408 24325,20394 24291,20379 24260,20366 24225,20359 24193,20349 24158,20337 24123,20322 24095,20301 24067,20280 24034,20266 24007,20247 23976,20226 23940,20209 23920,20177 L 23897,20149 23872,20118 23796,19854 Z"/>
       </g>
      </g>
      <g class="com.sun.star.drawing.ClosedBezierShape">
       <g id="id20">
        <rect class="BoundingBox" stroke="none" fill="none" x="20833" y="18681" width="841" height="420"/>
        <path fill="rgb(255,166,166)" stroke="none" d="M 20874,18866 C 20931,18845 20967,18783 21026,18770 21088,18756 21146,18732 21212,18733 21269,18733 21326,18723 21385,18722 21438,18721 21493,18730 21541,18751 21601,18777 21629,18845 21632,18903 21635,18982 21540,18952 21489,18965 21438,18978 21383,18970 21332,18970 21266,18970 21225,19016 21174,19041 L 21118,19059 21098,19055 20874,18866 Z"/>
        <path fill="none" stroke="rgb(206,172,149)" stroke-width="81" stroke-linejoin="round" d="M 20874,18866 C 20931,18845 20967,18783 21026,18770 21088,18756 21146,18732 21212,18733 21269,18733 21326,18723 21385,18722 21438,18721 21493,18730 21541,18751 21601,18777 21629,18845 21632,18903 21635,18982 21540,18952 21489,18965 21438,18978 21383,18970 21332,18970 21266,18970 21225,19016 21174,19041 L 21118,19059 21098,19055 20874,18866 Z"/>
       </g>
      </g>
      <g class="com.sun.star.drawing.ClosedBezierShape">
       <g id="id21">
        <rect class="BoundingBox" stroke="none" fill="none" x="22472" y="18715" width="1127" height="886"/>
        <path fill="rgb(255,166,166)" stroke="none" d="M 22513,18756 C 22568,18769 22617,18798 22671,18818 22740,18843 22814,18856 22885,18875 22943,18891 22996,18926 23052,18951 23109,18977 23156,19024 23199,19070 23241,19114 23307,19136 23337,19197 23365,19252 23414,19295 23452,19346 23489,19393 23519,19452 23548,19507 23594,19593 23457,19548 23429,19540 23366,19523 23301,19507 23238,19497 23185,19489 23132,19473 23081,19463 23029,19454 22980,19440 22937,19417 22883,19388 22826,19368 22771,19346 L 22713,19307 22709,19307 22513,18756 Z"/>
        <path fill="none" stroke="rgb(206,172,149)" stroke-width="81" stroke-linejoin="round" d="M 22513,18756 C 22568,18769 22617,18798 22671,18818 22740,18843 22814,18856 22885,18875 22943,18891 22996,18926 23052,18951 23109,18977 23156,19024 23199,19070 23241,19114 23307,19136 23337,19197 23365,19252 23414,19295 23452,19346 23489,19393 23519,19452 23548,19507 23594,19593 23457,19548 23429,19540 23366,19523 23301,19507 23238,19497 23185,19489 23132,19473 23081,19463 23029,19454 22980,19440 22937,19417 22883,19388 22826,19368 22771,19346 L 22713,19307 22709,19307 22513,18756 Z"/>
       </g>
      </g>
      <g class="com.sun.star.drawing.ClosedBezierShape">
       <g id="id22">
        <rect class="BoundingBox" stroke="none" fill="none" x="22297" y="18876" width="1036" height="511"/>
        <path fill="rgb(255,166,166)" stroke="none" d="M 22338,18956 C 22405,18922 22483,18922 22557,18917 22617,18914 22668,18937 22728,18937 22777,18937 22826,18967 22877,18975 22943,18985 23004,19019 23066,19046 23130,19073 23206,19084 23239,19165 23258,19213 23306,19267 23287,19317 23256,19394 23166,19292 23128,19264 23075,19224 23013,19219 22953,19217 22898,19216 22839,19212 22785,19227 22730,19242 22671,19244 22614,19250 22564,19256 22511,19254 22461,19245 L 22433,19241 22338,18956 Z"/>
        <path fill="none" stroke="rgb(206,172,149)" stroke-width="81" stroke-linejoin="round" d="M 22338,18956 C 22405,18922 22483,18922 22557,18917 22617,18914 22668,18937 22728,18937 22777,18937 22826,18967 22877,18975 22943,18985 23004,19019 23066,19046 23130,19073 23206,19084 23239,19165 23258,19213 23306,19267 23287,19317 23256,19394 23166,19292 23128,19264 23075,19224 23013,19219 22953,19217 22898,19216 22839,19212 22785,19227 22730,19242 22671,19244 22614,19250 22564,19256 22511,19254 22461,19245 L 22433,19241 22338,18956 Z"/>
       </g>
      </g>
      <g class="com.sun.star.drawing.ClosedBezierShape">
       <g id="id23">
        <rect class="BoundingBox" stroke="none" fill="none" x="21328" y="18334" width="885" height="362"/>
        <path fill="rgb(255,166,166)" stroke="none" d="M 21369,18376 C 21525,18376 21680,18374 21836,18376 21894,18377 21961,18374 22008,18415 22061,18460 22116,18506 22156,18571 22210,18659 22099,18634 22066,18647 22010,18669 21947,18630 21889,18628 21828,18627 21765,18626 21707,18610 21643,18592 21574,18591 21512,18566 L 21408,18548 21369,18376 Z"/>
        <path fill="none" stroke="rgb(206,172,149)" stroke-width="81" stroke-linejoin="round" d="M 21369,18376 C 21525,18376 21680,18374 21836,18376 21894,18377 21961,18374 22008,18415 22061,18460 22116,18506 22156,18571 22210,18659 22099,18634 22066,18647 22010,18669 21947,18630 21889,18628 21828,18627 21765,18626 21707,18610 21643,18592 21574,18591 21512,18566 L 21408,18548 21369,18376 Z"/>
       </g>
      </g>
      <g class="com.sun.star.drawing.ClosedBezierShape">
       <g id="id24">
        <rect class="BoundingBox" stroke="none" fill="none" x="20117" y="18149" width="689" height="274"/>
        <path fill="rgb(255,166,166)" stroke="none" d="M 20158,18277 C 20258,18171 20382,18192 20501,18192 20577,18192 20660,18185 20731,18224 20810,18269 20728,18334 20673,18343 20614,18353 20557,18355 20501,18357 20446,18360 20389,18350 20335,18367 L 20268,18381 20158,18277 Z"/>
        <path fill="none" stroke="rgb(206,172,149)" stroke-width="81" stroke-linejoin="round" d="M 20158,18277 C 20258,18171 20382,18192 20501,18192 20577,18192 20660,18185 20731,18224 20810,18269 20728,18334 20673,18343 20614,18353 20557,18355 20501,18357 20446,18360 20389,18350 20335,18367 L 20268,18381 20158,18277 Z"/>
       </g>
      </g>
     </g>
    </g>
   </g>
  </g>
 </g>
</svg>