<?xml version="1.0" encoding="UTF-8"?>
<!DOCTYPE svg PUBLIC "-//W3C//DTD SVG 1.1//EN" "http://www.w3.org/Graphics/SVG/1.1/DTD/svg11.dtd">
<svg version="1.2" width="254mm" height="254mm" viewBox="0 0 25400 25400" preserveAspectRatio="xMidYMid" fill-rule="evenodd" stroke-width="28.222" stroke-linejoin="round" xmlns="http://www.w3.org/2000/svg" xmlns:ooo="http://xml.openoffice.org/svg/export" xmlns:xlink="http://www.w3.org/1999/xlink" xmlns:presentation="http://sun.com/xmlns/staroffice/presentation" xmlns:smil="http://www.w3.org/2001/SMIL20/" xmlns:anim="urn:oasis:names:tc:opendocument:xmlns:animation:1.0" xml:space="preserve">
 <defs class="ClipPathGroup">
  <clipPath id="presentation_clip_path" clipPathUnits="userSpaceOnUse">
   <rect x="0" y="0" width="25400" height="25400"/>
  </clipPath>
  <clipPath id="presentation_clip_path_shrink" clipPathUnits="userSpaceOnUse">
   <rect x="25" y="25" width="25350" height="25350"/>
  </clipPath>
 </defs>
 <defs class="TextShapeIndex">
  <g ooo:slide="id1" ooo:id-list="id3 id4 id5 id6 id7 id8 id9 id10 id11 id12 id13 id14 id15 id16 id17 id18 id19 id20 id21 id22 id23 id24 id25 id26 id27 id28 id29"/>
 </defs>
 <defs class="EmbeddedBulletChars">
  <g id="bullet-char-template-57356" transform="scale(0.00048828125,-0.00048828125)">
   <path d="M 580,1141 L 1163,571 580,0 -4,571 580,1141 Z"/>
  </g>
  <g id="bullet-char-template-57354" transform="scale(0.00048828125,-0.00048828125)">
   <path d="M 8,1128 L 1137,1128 1137,0 8,0 8,1128 Z"/>
  </g>
  <g id="bullet-char-template-10146" transform="scale(0.00048828125,-0.00048828125)">
   <path d="M 174,0 L 602,739 174,1481 1456,739 174,0 Z M 1358,739 L 309,1346 659,739 1358,739 Z"/>
  </g>
  <g id="bullet-char-template-10132" transform="scale(0.00048828125,-0.00048828125)">
   <path d="M 2015,739 L 1276,0 717,0 1260,543 174,543 174,936 1260,936 717,1481 1274,1481 2015,739 Z"/>
  </g>
  <g id="bullet-char-template-10007" transform="scale(0.00048828125,-0.00048828125)">
   <path d="M 0,-2 C -7,14 -16,27 -25,37 L 356,567 C 262,823 215,952 215,954 215,979 228,992 255,992 264,992 276,990 289,987 310,991 331,999 354,1012 L 381,999 492,748 772,1049 836,1024 860,1049 C 881,1039 901,1025 922,1006 886,937 835,863 770,784 769,783 710,716 594,584 L 774,223 C 774,196 753,168 711,139 L 727,119 C 717,90 699,76 672,76 641,76 570,178 457,381 L 164,-76 C 142,-110 111,-127 72,-127 30,-127 9,-110 8,-76 1,-67 -2,-52 -2,-32 -2,-23 -1,-13 0,-2 Z"/>
  </g>
  <g id="bullet-char-template-10004" transform="scale(0.00048828125,-0.00048828125)">
   <path d="M 285,-33 C 182,-33 111,30 74,156 52,228 41,333 41,471 41,549 55,616 82,672 116,743 169,778 240,778 293,778 328,747 346,684 L 369,508 C 377,444 397,411 428,410 L 1163,1116 C 1174,1127 1196,1133 1229,1133 1271,1133 1292,1118 1292,1087 L 1292,965 C 1292,929 1282,901 1262,881 L 442,47 C 390,-6 338,-33 285,-33 Z"/>
  </g>
  <g id="bullet-char-template-9679" transform="scale(0.00048828125,-0.00048828125)">
   <path d="M 813,0 C 632,0 489,54 383,161 276,268 223,411 223,592 223,773 276,916 383,1023 489,1130 632,1184 813,1184 992,1184 1136,1130 1245,1023 1353,916 1407,772 1407,592 1407,412 1353,268 1245,161 1136,54 992,0 813,0 Z"/>
  </g>
  <g id="bullet-char-template-8226" transform="scale(0.00048828125,-0.00048828125)">
   <path d="M 346,457 C 273,457 209,483 155,535 101,586 74,649 74,723 74,796 101,859 155,911 209,963 273,989 346,989 419,989 480,963 531,910 582,859 608,796 608,723 608,648 583,586 532,535 482,483 420,457 346,457 Z"/>
  </g>
  <g id="bullet-char-template-8211" transform="scale(0.00048828125,-0.00048828125)">
   <path d="M -4,459 L 1135,459 1135,606 -4,606 -4,459 Z"/>
  </g>
  <g id="bullet-char-template-61548" transform="scale(0.00048828125,-0.00048828125)">
   <path d="M 173,740 C 173,903 231,1043 346,1159 462,1274 601,1332 765,1332 928,1332 1067,1274 1183,1159 1299,1043 1357,903 1357,740 1357,577 1299,437 1183,322 1067,206 928,148 765,148 601,148 462,206 346,322 231,437 173,577 173,740 Z"/>
  </g>
 </defs>
 <g>
  <g id="id2" class="Master_Slide">
   <g id="bg-id2" class="Background"/>
   <g id="bo-id2" class="BackgroundObjects"/>
  </g>
 </g>
 <g class="SlideGroup">
  <g>
   <g id="container-id1">
    <g id="id1" class="Slide" clip-path="url(#presentation_clip_path)">
     <g class="Page">
      <g class="com.sun.star.drawing.PolyPolygonShape">
       <g id="id3">
        <rect class="BoundingBox" stroke="none" fill="none" x="5079" y="6984" width="15243" height="6986"/>
        <g>
         <defs>
          <linearGradient id="gradient1" x1="12700" y1="6985" x2="12700" y2="13968" gradientUnits="userSpaceOnUse">
           <stop offset="0" style="stop-color:rgb(17,17,17)"/>
           <stop offset="1" style="stop-color:rgb(52,101,164)"/>
          </linearGradient>
         </defs>
         <path style="fill:url(#gradient1)" d="M 20320,10475 L 12700,6985 5080,10475 12700,13968 20320,10475 Z"/>
        </g>
        <path fill="none" stroke="rgb(52,101,164)" d="M 20320,10475 L 12700,6985 5080,10475 12700,13968 20320,10475 Z"/>
       </g>
      </g>
      <g class="com.sun.star.drawing.ClosedBezierShape">
       <g id="id4">
        <rect class="BoundingBox" stroke="none" fill="none" x="11538" y="12261" width="2273" height="1893"/>
        <path fill="rgb(204,204,204)" stroke="none" d="M 13809,12262 C 13809,13397 13809,13774 13052,14152 11918,14152 11539,14152 11539,12262 L 11918,12640 C 13431,12640 13431,12640 13809,12262 Z"/>
        <path fill="none" stroke="rgb(52,101,164)" d="M 13809,12262 C 13809,13397 13809,13774 13052,14152 11918,14152 11539,14152 11539,12262 L 11918,12640 C 13431,12640 13431,12640 13809,12262 Z"/>
       </g>
      </g>
      <g class="com.sun.star.drawing.CustomShape">
       <g id="id5">
        <rect class="BoundingBox" stroke="none" fill="none" x="11436" y="12339" width="2476" height="1921"/>
        <path fill="none" stroke="rgb(178,178,178)" stroke-width="212" stroke-linejoin="round" stroke-linecap="round" d="M 11542,12445 C 11542,13299 11856,14152 12170,14152 L 13176,14152 C 13490,14152 13805,13299 13805,12445"/>
       </g>
      </g>
      <g class="com.sun.star.drawing.PolyPolygonShape">
       <g id="id6">
        <rect class="BoundingBox" stroke="none" fill="none" x="3704" y="10370" width="9103" height="5929"/>
        <path fill="rgb(42,96,153)" stroke="none" d="M 12700,13970 L 5080,10477 3810,12700 11430,16192 12700,13970 Z"/>
        <path fill="none" stroke="rgb(0,19,45)" stroke-width="212" stroke-linejoin="round" d="M 12700,13970 L 5080,10477 3810,12700 11430,16192 12700,13970 Z"/>
       </g>
      </g>
      <g class="com.sun.star.drawing.PolyPolygonShape">
       <g id="id7">
        <rect class="BoundingBox" stroke="none" fill="none" x="12594" y="10370" width="9103" height="5929"/>
        <path fill="rgb(42,96,153)" stroke="none" d="M 12700,13970 L 20320,10477 21590,12700 13970,16192 12700,13970 Z"/>
        <path fill="none" stroke="rgb(0,19,45)" stroke-width="212" stroke-linejoin="round" d="M 12700,13970 L 20320,10477 21590,12700 13970,16192 12700,13970 Z"/>
       </g>
      </g>
      <g class="com.sun.star.drawing.PolyPolygonShape">
       <g id="id8">
        <rect class="BoundingBox" stroke="none" fill="none" x="4974" y="13229" width="7833" height="8468"/>
        <g>
         <defs>
          <linearGradient id="gradient2" x1="6151" y1="12717" x2="11630" y2="22208" gradientUnits="userSpaceOnUse">
           <stop offset="0" style="stop-color:rgb(42,96,153)"/>
           <stop offset="1" style="stop-color:rgb(114,159,207)"/>
          </linearGradient>
         </defs>
         <path style="fill:url(#gradient2)" d="M 5080,18097 L 12700,21590 12700,13970 11430,16192 5080,13335 5080,18097 Z"/>
        </g>
        <path fill="none" stroke="rgb(0,19,45)" stroke-width="212" stroke-linejoin="round" d="M 5080,18097 L 12700,21590 12700,13970 11430,16192 5080,13335 5080,18097 Z"/>
       </g>
      </g>
      <g class="com.sun.star.drawing.PolyPolygonShape">
       <g id="id9">
        <rect class="BoundingBox" stroke="none" fill="none" x="12594" y="13229" width="7833" height="8468"/>
        <g>
         <defs>
          <linearGradient id="gradient3" x1="12110" y1="18238" x2="20911" y2="16686" gradientUnits="userSpaceOnUse">
           <stop offset="0" style="stop-color:rgb(0,32,72)"/>
           <stop offset="1" style="stop-color:rgb(52,101,164)"/>
          </linearGradient>
         </defs>
         <path style="fill:url(#gradient3)" d="M 20320,18097 L 12700,21590 12700,13970 13970,16192 20320,13335 20320,18097 Z"/>
        </g>
        <path fill="none" stroke="rgb(0,19,45)" stroke-width="212" stroke-linejoin="round" d="M 20320,18097 L 12700,21590 12700,13970 13970,16192 20320,13335 20320,18097 Z"/>
       </g>
      </g>
      <g class="com.sun.star.drawing.LineShape">
       <g id="id10">
        <rect class="BoundingBox" stroke="none" fill="none" x="4974" y="10371" width="7833" height="3706"/>
        <path fill="none" stroke="rgb(0,19,45)" stroke-width="212" stroke-linejoin="round" stroke-linecap="round" d="M 5080,10477 L 12700,13970"/>
       </g>
      </g>
      <g class="com.sun.star.drawing.LineShape">
       <g id="id11">
        <rect class="BoundingBox" stroke="none" fill="none" x="12594" y="17991" width="7813" height="3706"/>
        <path fill="none" stroke="rgb(0,19,45)" stroke-width="212" stroke-linejoin="round" stroke-linecap="round" d="M 20300,18097 L 12700,21590"/>
       </g>
      </g>
      <g class="com.sun.star.drawing.LineShape">
       <g id="id12">
        <rect class="BoundingBox" stroke="none" fill="none" x="12594" y="10371" width="7833" height="3706"/>
        <path fill="none" stroke="rgb(0,19,45)" stroke-width="212" stroke-linejoin="round" stroke-linecap="round" d="M 20320,10477 L 12700,13970"/>
       </g>
      </g>
      <g class="com.sun.star.drawing.LineShape">
       <g id="id13">
        <rect class="BoundingBox" stroke="none" fill="none" x="4974" y="13229" width="213" height="4975"/>
        <path fill="none" stroke="rgb(0,19,45)" stroke-width="212" stroke-linejoin="round" stroke-linecap="round" d="M 5080,13335 L 5080,18097"/>
       </g>
      </g>
      <g class="com.sun.star.drawing.LineShape">
       <g id="id14">
        <rect class="BoundingBox" stroke="none" fill="none" x="20214" y="13229" width="213" height="4975"/>
        <path fill="none" stroke="rgb(0,19,45)" stroke-width="212" stroke-linejoin="round" stroke-linecap="round" d="M 20320,13335 L 20320,18097"/>
       </g>
      </g>
      <g class="com.sun.star.drawing.LineShape">
       <g id="id15">
        <rect class="BoundingBox" stroke="none" fill="none" x="4974" y="6879" width="7833" height="3705"/>
        <path fill="none" stroke="rgb(0,19,45)" stroke-width="212" stroke-linejoin="round" stroke-linecap="round" d="M 12700,6985 L 5080,10477"/>
       </g>
      </g>
      <g class="com.sun.star.drawing.LineShape">
       <g id="id16">
        <rect class="BoundingBox" stroke="none" fill="none" x="12594" y="6879" width="7833" height="3705"/>
        <path fill="none" stroke="rgb(0,19,45)" stroke-width="212" stroke-linejoin="round" stroke-linecap="round" d="M 12700,6985 L 20320,10477"/>
       </g>
      </g>
      <g class="com.sun.star.drawing.LineShape">
       <g id="id17">
        <rect class="BoundingBox" stroke="none" fill="none" x="3704" y="12594" width="7833" height="3705"/>
        <path fill="none" stroke="rgb(0,19,45)" stroke-width="212" stroke-linejoin="round" stroke-linecap="round" d="M 3810,12700 L 11430,16192"/>
       </g>
      </g>
      <g class="com.sun.star.drawing.LineShape">
       <g id="id18">
        <rect class="BoundingBox" stroke="none" fill="none" x="11324" y="13864" width="1483" height="2435"/>
        <path fill="none" stroke="rgb(0,19,45)" stroke-width="212" stroke-linejoin="round" stroke-linecap="round" d="M 12700,13970 L 11430,16192"/>
       </g>
      </g>
      <g class="com.sun.star.drawing.LineShape">
       <g id="id19">
        <rect class="BoundingBox" stroke="none" fill="none" x="12624" y="13864" width="1453" height="2435"/>
        <path fill="none" stroke="rgb(0,19,45)" stroke-width="212" stroke-linejoin="round" stroke-linecap="round" d="M 12730,13970 L 13970,16192"/>
       </g>
      </g>
      <g class="com.sun.star.drawing.LineShape">
       <g id="id20">
        <rect class="BoundingBox" stroke="none" fill="none" x="3704" y="10371" width="1483" height="2435"/>
        <path fill="none" stroke="rgb(0,19,45)" stroke-width="212" stroke-linejoin="round" stroke-linecap="round" d="M 5080,10477 L 3810,12699"/>
       </g>
      </g>
      <g class="com.sun.star.drawing.LineShape">
       <g id="id21">
        <rect class="BoundingBox" stroke="none" fill="none" x="13864" y="12594" width="7833" height="3705"/>
        <path fill="none" stroke="rgb(0,19,45)" stroke-width="212" stroke-linejoin="round" stroke-linecap="round" d="M 21590,12700 L 13970,16192"/>
       </g>
      </g>
      <g class="com.sun.star.drawing.LineShape">
       <g id="id22">
        <rect class="BoundingBox" stroke="none" fill="none" x="20214" y="10371" width="1483" height="2435"/>
        <path fill="none" stroke="rgb(0,19,45)" stroke-width="212" stroke-linejoin="round" stroke-linecap="round" d="M 20320,10477 L 21590,12699"/>
       </g>
      </g>
      <g class="com.sun.star.drawing.ClosedBezierShape">
       <g id="id23">
        <rect class="BoundingBox" stroke="none" fill="none" x="11160" y="11127" width="3030" height="1595"/>
        <path fill="rgb(128,128,128)" stroke="none" d="M 14188,11128 C 13970,12700 13335,12700 13335,12700 12958,12700 11161,13018 11161,11128 L 12295,11505 C 13431,11505 14188,11128 14188,11128 Z"/>
        <path fill="none" stroke="rgb(52,101,164)" d="M 14188,11128 C 13970,12700 13335,12700 13335,12700 12958,12700 11161,13018 11161,11128 L 12295,11505 C 13431,11505 14188,11128 14188,11128 Z"/>
       </g>
      </g>
      <g class="com.sun.star.drawing.CustomShape">
       <g id="id24">
        <rect class="BoundingBox" stroke="none" fill="none" x="8148" y="2433" width="9155" height="9105"/>
        <path fill="rgb(255,191,0)" fill-opacity="0.812" stroke="rgb(255,255,255)" stroke-opacity="0.812" d="M 17196,6986 C 17196,7766 16989,8532 16597,9208 16205,9884 15640,10445 14961,10835 14281,11226 13510,11431 12725,11431 11940,11431 11169,11226 10490,10835 9810,10445 9245,9884 8853,9208 8461,8532 8254,7766 8254,6986 8254,6205 8461,5439 8853,4763 9245,4087 9810,3526 10489,3136 11169,2745 11940,2540 12725,2540 13510,2540 14281,2745 14960,3136 15640,3526 16205,4087 16597,4763 16989,5439 17196,6205 17196,6985 L 17196,6986 Z"/>
        <path fill="none" stroke="rgb(0,0,0)" stroke-width="212" stroke-linejoin="round" d="M 17196,6986 C 17196,7766 16989,8532 16597,9208 16205,9884 15640,10445 14961,10835 14281,11226 13510,11431 12725,11431 11940,11431 11169,11226 10490,10835 9810,10445 9245,9884 8853,9208 8461,8532 8254,7766 8254,6986 8254,6205 8461,5439 8853,4763 9245,4087 9810,3526 10489,3136 11169,2745 11940,2540 12725,2540 13510,2540 14281,2745 14960,3136 15640,3526 16205,4087 16597,4763 16989,5439 17196,6205 17196,6985 L 17196,6986 Z"/>
       </g>
      </g>
      <g class="com.sun.star.drawing.CustomShape">
       <g id="id25">
        <rect class="BoundingBox" stroke="none" fill="none" x="10398" y="5989" width="4659" height="1543"/>
        <path fill="none" stroke="rgb(0,0,0)" stroke-width="212" stroke-linejoin="round" stroke-linecap="round" d="M 10504,6095 C 10504,6760 10897,7425 11291,7425 L 14162,7425 C 14556,7425 14950,6760 14950,6095"/>
       </g>
      </g>
      <g class="com.sun.star.drawing.LineShape">
       <g id="id26">
        <rect class="BoundingBox" stroke="none" fill="none" x="10386" y="5991" width="1556" height="4215"/>
        <path fill="none" stroke="rgb(0,0,0)" stroke-width="212" stroke-linejoin="round" stroke-linecap="round" d="M 11834,10099 L 10492,6097"/>
       </g>
      </g>
      <g class="com.sun.star.drawing.LineShape">
       <g id="id27">
        <rect class="BoundingBox" stroke="none" fill="none" x="13516" y="5991" width="1556" height="4215"/>
        <path fill="none" stroke="rgb(0,0,0)" stroke-width="212" stroke-linejoin="round" stroke-linecap="round" d="M 13622,10099 L 14964,6097"/>
       </g>
      </g>
      <g class="com.sun.star.drawing.CustomShape">
       <g id="id28">
        <rect class="BoundingBox" stroke="none" fill="none" x="11291" y="8657" width="2885" height="1000"/>
        <path fill="none" stroke="rgb(0,0,0)" stroke-width="212" stroke-linejoin="round" stroke-linecap="round" d="M 11397,8763 C 11397,9156 11827,9549 12257,9549 L 13207,9549 C 13637,9549 14068,9156 14068,8763"/>
       </g>
      </g>
      <g class="com.sun.star.drawing.CustomShape">
       <g id="id29">
        <rect class="BoundingBox" stroke="none" fill="none" x="11048" y="11109" width="3253" height="1642"/>
        <path fill="none" stroke="rgb(102,102,102)" stroke-width="212" stroke-linejoin="round" stroke-linecap="round" d="M 11154,11216 C 11154,11930 11576,12644 11998,12644 L 13349,12644 C 13771,12644 14194,11930 14194,11216"/>
       </g>
      </g>
     </g>
    </g>
   </g>
  </g>
 </g>
</svg>